<svg >
  <symbol xmlns="http://www.w3.org/2000/svg" viewBox="0 0 16 16" id="Search">
    <path d="M13.8315 12.9884L11.6068 10.78C12.4704 9.70246 12.8886 8.33476 12.7754 6.95814C12.6623 5.58151 12.0264 4.30059 10.9985 3.37875C9.97062 2.45692 8.62888 1.96424 7.24917 2.00202C5.86946 2.03981 4.55665 2.60518 3.58069 3.58189C2.60472 4.5586 2.03978 5.8724 2.00202 7.25316C1.96427 8.63392 2.45657 9.97668 3.37771 11.0053C4.29884 12.034 5.57879 12.6704 6.95437 12.7836C8.32996 12.8968 9.69661 12.4783 10.7733 11.6141L12.98 13.8225C13.0358 13.8787 13.1021 13.9234 13.1752 13.9538C13.2482 13.9843 13.3266 14 13.4058 14C13.4849 14 13.5633 13.9843 13.6364 13.9538C13.7094 13.9234 13.7758 13.8787 13.8315 13.8225C13.9396 13.7106 14 13.5611 14 13.4054C14 13.2498 13.9396 13.1003 13.8315 12.9884ZM7.40932 11.6141C6.57914 11.6141 5.76759 11.3678 5.07732 10.9062C4.38704 10.4446 3.84904 9.78855 3.53134 9.02097C3.21364 8.25339 3.13051 7.40877 3.29247 6.59392C3.45444 5.77906 3.85421 5.03057 4.44124 4.4431C5.02827 3.85562 5.7762 3.45554 6.59043 3.29346C7.40467 3.13137 8.24865 3.21456 9.01564 3.5325C9.78263 3.85044 10.4382 4.38885 10.8994 5.07965C11.3607 5.77045 11.6068 6.58262 11.6068 7.41343C11.6068 8.52753 11.1646 9.59599 10.3774 10.3838C9.59022 11.1716 8.52257 11.6141 7.40932 11.6141Z"></path>
  </symbol>
  <symbol xmlns="http://www.w3.org/2000/svg" viewBox="0 0 16 16" id="Cart">
    <path d="M0.999023 1.59916C0.999023 1.44001 1.06225 1.28738 1.17478 1.17484C1.28732 1.06231 1.43995 0.999084 1.5991 0.999084H2.04556C2.80566 0.999084 3.26172 1.51035 3.52175 1.98561C3.69538 2.30245 3.82099 2.6697 3.91941 3.00255C3.94602 3.00045 3.97271 2.99938 3.99942 2.99935H13.9991C14.6632 2.99935 15.1433 3.63463 14.9608 4.27391L13.4983 9.40178C13.3671 9.86173 13.0897 10.2664 12.708 10.5546C12.3263 10.8427 11.8611 10.9987 11.3828 10.9988H6.62376C6.14169 10.9988 5.67296 10.8405 5.2896 10.5482C4.90625 10.2559 4.6295 9.84585 4.50188 9.38098L3.8938 7.16309L2.88567 3.76425L2.88487 3.75785C2.76005 3.30419 2.64324 2.87933 2.46882 2.56249C2.30159 2.25445 2.16718 2.19924 2.04636 2.19924H1.5991C1.43995 2.19924 1.28732 2.13602 1.17478 2.02348C1.06225 1.91095 0.999023 1.75831 0.999023 1.59916ZM5.05795 6.87185L5.65883 9.06334C5.77885 9.497 6.1733 9.79864 6.62376 9.79864H11.3828C11.6002 9.79863 11.8116 9.7278 11.9852 9.59685C12.1587 9.46591 12.2849 9.28199 12.3445 9.07294L13.7343 4.1995H4.26745L5.04675 6.82945L5.05795 6.87185Z"></path>
    <path d="M7.80003 13.4007C7.80003 13.8251 7.63143 14.2322 7.33134 14.5323C7.03124 14.8324 6.62422 15.001 6.19982 15.001C5.77542 15.001 5.3684 14.8324 5.0683 14.5323C4.7682 14.2322 4.59961 13.8251 4.59961 13.4007C4.59961 12.9763 4.7682 12.5693 5.0683 12.2692C5.3684 11.9691 5.77542 11.8005 6.19982 11.8005C6.62422 11.8005 7.03124 11.9691 7.33134 12.2692C7.63143 12.5693 7.80003 12.9763 7.80003 13.4007ZM6.59987 13.4007C6.59987 13.2946 6.55772 13.1929 6.4827 13.1179C6.40767 13.0428 6.30592 13.0007 6.19982 13.0007C6.09372 13.0007 5.99196 13.0428 5.91694 13.1179C5.84191 13.1929 5.79977 13.2946 5.79977 13.4007C5.79977 13.5068 5.84191 13.6086 5.91694 13.6836C5.99196 13.7587 6.09372 13.8008 6.19982 13.8008C6.30592 13.8008 6.40767 13.7587 6.4827 13.6836C6.55772 13.6086 6.59987 13.5068 6.59987 13.4007Z" ></path>
    <path d="M13.4006 13.4007C13.4006 13.8251 13.232 14.2322 12.9319 14.5323C12.6318 14.8324 12.2248 15.001 11.8004 15.001C11.376 15.001 10.969 14.8324 10.6689 14.5323C10.3688 14.2322 10.2002 13.8251 10.2002 13.4007C10.2002 12.9763 10.3688 12.5693 10.6689 12.2692C10.969 11.9691 11.376 11.8005 11.8004 11.8005C12.2248 11.8005 12.6318 11.9691 12.9319 12.2692C13.232 12.5693 13.4006 12.9763 13.4006 13.4007ZM12.2005 13.4007C12.2005 13.2946 12.1583 13.1929 12.0833 13.1179C12.0083 13.0428 11.9065 13.0007 11.8004 13.0007C11.6943 13.0007 11.5925 13.0428 11.5175 13.1179C11.4425 13.1929 11.4004 13.2946 11.4004 13.4007C11.4004 13.5068 11.4425 13.6086 11.5175 13.6836C11.5925 13.7587 11.6943 13.8008 11.8004 13.8008C11.9065 13.8008 12.0083 13.7587 12.0833 13.6836C12.1583 13.6086 12.2005 13.5068 12.2005 13.4007Z" ></path>
  </symbol>
  <symbol  xmlns="http://www.w3.org/2000/svg" viewBox="0 0 16 16" id="Heart">
    <path d="M13.7141 3.30182C12.9713 2.55413 11.9865 2.09955 10.9387 2.02074C9.89102 1.94192 8.84997 2.24411 8.00494 2.87236C7.11474 2.20608 6.00672 1.90396 4.90401 2.02683C3.80131 2.1497 2.78582 2.68844 2.06205 3.53456C1.33828 4.38068 0.959991 5.47133 1.00336 6.58688C1.04672 7.70243 1.50852 8.76001 2.29576 9.54665L7.50818 14.7917C7.57323 14.8577 7.65061 14.9101 7.73587 14.9459C7.82113 14.9816 7.91257 15 8.00494 15C8.0973 15 8.18875 14.9816 8.27401 14.9459C8.35927 14.9101 8.43665 14.8577 8.50169 14.7917L13.7141 9.54665C14.1218 9.13671 14.4452 8.64995 14.6658 8.11419C14.8864 7.57843 15 7.00418 15 6.42424C15 5.8443 14.8864 5.27004 14.6658 4.73428C14.4452 4.19852 14.1218 3.71177 13.7141 3.30182ZM12.7276 8.55396L8.00494 13.2992L3.28227 8.55396C2.8661 8.13343 2.5826 7.59861 2.46733 7.01657C2.35207 6.43454 2.41017 5.83121 2.63436 5.28228C2.85854 4.73335 3.23882 4.26325 3.72749 3.93097C4.21616 3.59868 4.79147 3.419 5.38123 3.41447C6.16912 3.41641 6.92404 3.73293 7.4802 4.29452C7.54524 4.3605 7.62262 4.41288 7.70788 4.44862C7.79314 4.48437 7.88459 4.50277 7.97695 4.50277C8.06931 4.50277 8.16076 4.48437 8.24602 4.44862C8.33128 4.41288 8.40866 4.3605 8.47371 4.29452C9.04625 3.79527 9.7859 3.53355 10.543 3.56233C11.3 3.59111 12.0179 3.90824 12.5514 4.44954C13.0849 4.99083 13.3941 5.71586 13.4164 6.47788C13.4387 7.23989 13.1725 7.98199 12.6716 8.55396H12.7276Z"></path>
  </symbol>
  <symbol  xmlns="http://www.w3.org/2000/svg" viewBox="0 0 16 16" id="User">
    <path d="M8 2C8.49445 2 8.9778 2.14662 9.38893 2.42133C9.80005 2.69603 10.1205 3.08648 10.3097 3.54329C10.4989 4.00011 10.5484 4.50277 10.452 4.98773C10.3555 5.47268 10.1174 5.91814 9.76777 6.26777C9.41814 6.6174 8.97268 6.8555 8.48773 6.95196C8.00278 7.04843 7.50011 6.99892 7.04329 6.8097C6.58648 6.62048 6.19603 6.30005 5.92133 5.88893C5.64662 5.4778 5.5 4.99445 5.5 4.5C5.5 3.83696 5.76339 3.20107 6.23223 2.73223C6.70108 2.26339 7.33696 2 8 2ZM8 1C7.30777 1 6.63108 1.20527 6.05551 1.58986C5.47993 1.97444 5.03133 2.52107 4.76642 3.16061C4.50152 3.80015 4.4322 4.50388 4.56725 5.18282C4.7023 5.86175 5.03564 6.48539 5.52513 6.97487C6.01461 7.46436 6.63825 7.7977 7.31719 7.93275C7.99612 8.0678 8.69985 7.99848 9.33939 7.73358C9.97893 7.46867 10.5256 7.02007 10.9101 6.4445C11.2947 5.86892 11.5 5.19223 11.5 4.5C11.5 3.57174 11.1313 2.6815 10.4749 2.02513C9.8185 1.36875 8.92826 1 8 1Z"></path>
    <path d="M13 15H12V12.5C12 12.1717 11.9353 11.8466 11.8097 11.5433C11.6841 11.24 11.4999 10.9644 11.2678 10.7322C11.0356 10.5001 10.76 10.3159 10.4567 10.1903C10.1534 10.0647 9.8283 10 9.5 10H6.5C5.83696 10 5.20107 10.2634 4.73223 10.7322C4.26339 11.2011 4 11.837 4 12.5V15H3V12.5C3 11.5717 3.36875 10.6815 4.02513 10.0251C4.6815 9.36875 5.57174 9 6.5 9H9.5C10.4283 9 11.3185 9.36875 11.9749 10.0251C12.6313 10.6815 13 11.5717 13 12.5V15Z"></path>
  </symbol>
  <symbol  xmlns="http://www.w3.org/2000/svg" viewBox="0 0 16 16" id="Chevron">
    <path d="M2.99951 5L7.99967 10L12.9998 5" ></path>
  </symbol>
  <symbol xmlns="http://www.w3.org/2000/svg" viewBox="0 0 16 16" id="Call">
    <path d="M11.1967 15H11.2164C11.586 15 11.9353 14.8544 12.1999 14.5898L14.0984 12.6913C14.1634 12.6263 14.215 12.5492 14.2503 12.4643C14.2855 12.3793 14.3036 12.2883 14.3036 12.1964C14.3036 12.1044 14.2855 12.0134 14.2503 11.9285C14.215 11.8435 14.1634 11.7664 14.0984 11.7014L11.2983 8.90129C11.2333 8.83623 11.1562 8.78461 11.0712 8.74939C10.9863 8.71417 10.8953 8.69604 10.8033 8.69604C10.7114 8.69604 10.6204 8.71417 10.5354 8.74939C10.4505 8.78461 10.3734 8.83623 10.3084 8.90129L9.19257 10.0171C8.67525 9.86314 7.70991 9.51313 7.09809 8.90129C6.48627 8.28946 6.13625 7.32412 5.98225 6.80679L7.09809 5.69093C7.16315 5.62598 7.21477 5.54883 7.24999 5.46391C7.28521 5.37898 7.30334 5.28795 7.30334 5.19601C7.30334 5.10407 7.28521 5.01304 7.24999 4.92811C7.21477 4.84319 7.16315 4.76604 7.09809 4.70109L4.29798 1.90094C4.16415 1.77463 3.98709 1.70426 3.80306 1.70426C3.61903 1.70426 3.44197 1.77463 3.30814 1.90094L1.41037 3.79944C1.14436 4.06545 0.994551 4.43087 1.00015 4.80399C1.01625 5.80084 1.28016 9.26321 4.00887 11.9919C6.73758 14.7207 10.1999 14.9839 11.1967 15ZM3.80376 3.38572L5.61403 5.19601L4.7089 6.10115C4.62653 6.1833 4.56602 6.28474 4.53288 6.39625C4.49975 6.50776 4.49504 6.62579 4.51919 6.73959C4.53599 6.82009 4.94691 8.72909 6.10895 9.89114C7.271 11.0532 9.17997 11.4641 9.26047 11.4809C9.37426 11.5052 9.49233 11.5006 9.60386 11.4674C9.71539 11.4343 9.81683 11.3737 9.8989 11.2912L10.804 10.3861L12.6143 12.1964L11.21 13.5999C10.3364 13.5852 7.3473 13.3507 4.99871 11.0014C2.64242 8.64508 2.41421 5.64543 2.40021 4.78929L3.80376 3.38572ZM13.5999 7.29961H15C15 3.70844 12.2888 1 8.69275 1V2.40007C11.5363 2.40007 13.5999 4.46027 13.5999 7.29961Z"></path>
    <path d="M9.5 4.12187V3.52039C10.4424 3.60006 11.1376 3.90971 11.6139 4.38605C12.0903 4.8624 12.3999 5.55761 12.4796 6.5H11.8781C11.8151 5.8192 11.6097 5.24081 11.1845 4.81555C10.7592 4.39029 10.1808 4.18491 9.5 4.12187Z"></path>
  </symbol>
  <symbol xmlns="http://www.w3.org/2000/svg" viewBox="0 0 16 16" id="Envelope">
    <path d="M12.9 2H3.1C2.54305 2 2.0089 2.23705 1.61508 2.65901C1.22125 3.08097 1 3.65326 1 4.25V11.75C1 12.3467 1.22125 12.919 1.61508 13.341C2.0089 13.7629 2.54305 14 3.1 14H12.9C13.457 14 13.9911 13.7629 14.3849 13.341C14.7788 12.919 15 12.3467 15 11.75V4.25C15 3.65326 14.7788 3.08097 14.3849 2.65901C13.9911 2.23705 13.457 2 12.9 2ZM3.1 3.5H12.9C13.0857 3.5 13.2637 3.57902 13.395 3.71967C13.5263 3.86032 13.6 4.05109 13.6 4.25L8 7.91L2.4 4.25C2.4 4.05109 2.47375 3.86032 2.60503 3.71967C2.7363 3.57902 2.91435 3.5 3.1 3.5ZM13.6 11.75C13.6 11.9489 13.5263 12.1397 13.395 12.2803C13.2637 12.421 13.0857 12.5 12.9 12.5H3.1C2.91435 12.5 2.7363 12.421 2.60503 12.2803C2.47375 12.1397 2.4 11.9489 2.4 11.75V5.96L7.636 9.3875C7.74241 9.45333 7.86312 9.48798 7.986 9.48798C8.10888 9.48798 8.22959 9.45333 8.336 9.3875L13.6 5.96V11.75Z" ></path>
  </symbol>

  <symbol fill="none" xmlns="http://www.w3.org/2000/svg" viewBox="0 0 13 13" id="facebook">
    <path d="M7.82014 10.9791V6.7352H9.25186L9.46467 5.07358H7.82014V4.0152C7.82014 3.53571 7.95373 3.20743 8.64189 3.20743H9.51386V1.726C9.0896 1.68054 8.66314 1.65858 8.23645 1.66024C6.97095 1.66024 6.10208 2.4328 6.10208 3.85105V5.07047H4.67969V6.73209H6.10519V10.9791H7.82014Z" fill="white"></path>
  </symbol>
  <symbol fill="none" xmlns="http://www.w3.org/2000/svg" viewBox="0 0 13 13" id="instagram">
    <path d="M11.2447 4.40728C11.2395 4.01511 11.1661 3.62684 11.0277 3.25983C10.9078 2.95027 10.7246 2.66913 10.4898 2.43437C10.2551 2.19962 9.97394 2.01642 9.66437 1.89647C9.30208 1.76047 8.91935 1.68694 8.53246 1.67899C8.03434 1.65673 7.87641 1.65051 6.61194 1.65051C5.34748 1.65051 5.18541 1.65051 4.69091 1.67899C4.30419 1.68699 3.92164 1.76053 3.55952 1.89647C3.2499 2.01633 2.96872 2.19951 2.73395 2.43427C2.49919 2.66903 2.31601 2.95022 2.19615 3.25983C2.05988 3.62184 1.98651 4.00449 1.97919 4.39122C1.95693 4.88987 1.9502 5.04779 1.9502 6.31226C1.9502 7.57673 1.9502 7.73828 1.97919 8.2333C1.98696 8.62061 2.05997 9.00275 2.19615 9.36572C2.31622 9.67524 2.49953 9.95631 2.73437 10.191C2.96921 10.4256 3.25042 10.6087 3.56003 10.7286C3.92116 10.87 4.30379 10.9488 4.69143 10.9616C5.19007 10.9838 5.34799 10.9906 6.61246 10.9906C7.87693 10.9906 8.039 10.9906 8.5335 10.9616C8.92037 10.954 9.30313 10.8806 9.6654 10.7446C9.97489 10.6245 10.256 10.4413 10.4907 10.2065C10.7254 9.97181 10.9087 9.69074 11.0288 9.38126C11.165 9.0188 11.238 8.63666 11.2457 8.24883C11.268 7.75071 11.2747 7.59278 11.2747 6.32779C11.2737 5.06333 11.2737 4.90281 11.2447 4.40728ZM6.60884 8.70346C5.28638 8.70346 4.21505 7.63213 4.21505 6.30967C4.21505 4.98721 5.28638 3.91588 6.60884 3.91588C7.24371 3.91588 7.85258 4.16809 8.3015 4.61701C8.75042 5.06593 9.00262 5.6748 9.00262 6.30967C9.00262 6.94454 8.75042 7.55341 8.3015 8.00233C7.85258 8.45126 7.24371 8.70346 6.60884 8.70346ZM9.0979 4.38553C8.78877 4.38553 8.53971 4.13595 8.53971 3.82734C8.53971 3.75407 8.55414 3.68152 8.58218 3.61383C8.61022 3.54614 8.65132 3.48463 8.70312 3.43283C8.75493 3.38102 8.81644 3.33992 8.88413 3.31188C8.95182 3.28384 9.02437 3.26941 9.09764 3.26941C9.17091 3.26941 9.24346 3.28384 9.31115 3.31188C9.37884 3.33992 9.44035 3.38102 9.49215 3.43283C9.54396 3.48463 9.58506 3.54614 9.6131 3.61383C9.64114 3.68152 9.65557 3.75407 9.65557 3.82734C9.65557 4.13595 9.40599 4.38553 9.0979 4.38553Z" fill="white"></path>
    <path d="M6.60866 7.8643C7.46744 7.8643 8.16361 7.16812 8.16361 6.30935C8.16361 5.45057 7.46744 4.75439 6.60866 4.75439C5.74989 4.75439 5.05371 5.45057 5.05371 6.30935C5.05371 7.16812 5.74989 7.8643 6.60866 7.8643Z" fill="white"></path>
  </symbol>
  <symbol fill="none" xmlns="http://www.w3.org/2000/svg" viewBox="0 0 14 13" id="twitter">
    <path d="M12.9329 2.66303C12.5006 2.85461 12.0361 2.98406 11.5478 3.04257C12.0516 2.74111 12.4286 2.26664 12.6083 1.70769C12.1349 1.98885 11.6169 2.18675 11.0766 2.2928C10.7133 1.9049 10.2321 1.64779 9.70773 1.5614C9.18334 1.475 8.64509 1.56415 8.17655 1.815C7.70802 2.06586 7.33541 2.46438 7.11657 2.9487C6.89774 3.43302 6.84493 3.97604 6.96633 4.49345C6.0072 4.44529 5.06892 4.196 4.21238 3.76175C3.35583 3.3275 2.60016 2.718 1.99442 1.9728C1.7873 2.33008 1.66821 2.74432 1.66821 3.18549C1.66798 3.58264 1.76578 3.9737 1.95294 4.32399C2.14009 4.67428 2.41082 4.97295 2.74109 5.19351C2.35806 5.18133 1.98348 5.07783 1.64853 4.89164V4.9227C1.64849 5.47972 1.84117 6.0196 2.19387 6.45073C2.54657 6.88186 3.03757 7.17768 3.58355 7.28801C3.22823 7.38417 2.8557 7.39834 2.4941 7.32944C2.64814 7.80872 2.94821 8.22783 3.35228 8.5281C3.75636 8.82837 4.24422 8.99477 4.74756 9.004C3.89311 9.67476 2.83786 10.0386 1.75157 10.037C1.55915 10.0371 1.36689 10.0258 1.17578 10.0034C2.27842 10.7123 3.56198 11.0886 4.87287 11.0871C9.31041 11.0871 11.7363 7.41177 11.7363 4.22419C11.7363 4.12063 11.7337 4.01604 11.729 3.91248C12.2009 3.57123 12.6082 3.14867 12.9319 2.66458L12.9329 2.66303Z" fill="white"></path>
  </symbol>
    <symbol version="1.1" id="Star" xmlns="http://www.w3.org/2000/svg" xmlns:xlink="http://www.w3.org/1999/xlink" xml:space="preserve" transform="rotate(0)matrix(1, 0, 0, 1, 0, 0)" stroke-width="0.00047939999999999994" viewBox="0 0 47.94 47.94">
    <g id="SVGRepo_bgCarrier" stroke-width="0"></g>
    <g id="SVGRepo_tracerCarrier" stroke-linecap="round" stroke-linejoin="round" stroke-width="0.19175999999999999"></g>
    <g id="SVGRepo_iconCarrier">
      <path d="M26.285,2.486l5.407,10.956c0.376,0.762,1.103,1.29,1.944,1.412l12.091,1.757 c2.118,0.308,2.963,2.91,1.431,4.403l-8.749,8.528c-0.608,0.593-0.886,1.448-0.742,2.285l2.065,12.042 c0.362,2.109-1.852,3.717-3.746,2.722l-10.814-5.685c-0.752-0.395-1.651-0.395-2.403,0l-10.814,5.685 c-1.894,0.996-4.108-0.613-3.746-2.722l2.065-12.042c0.144-0.837-0.134-1.692-0.742-2.285l-8.749-8.528 c-1.532-1.494-0.687-4.096,1.431-4.403l12.091-1.757c0.841-0.122,1.568-0.65,1.944-1.412l5.407-10.956 C22.602,0.567,25.338,0.567,26.285,2.486z"></path>
    </g>
  </symbol>
    <symbol xmlns="http://www.w3.org/2000/svg" viewBox="0 0 10 8" id="check">
    <path d="M9.47297 0.806574C9.411 0.744088 9.33726 0.694492 9.25602 0.660646C9.17479 0.6268 9.08765 0.609375 8.99964 0.609375C8.91163 0.609375 8.8245 0.6268 8.74326 0.660646C8.66202 0.694492 8.58828 0.744088 8.52631 0.806574L3.55964 5.77991L1.47297 3.68657C1.40863 3.62441 1.33267 3.57554 1.24943 3.54274C1.16619 3.50993 1.07731 3.49385 0.987856 3.49539C0.898402 3.49694 0.810129 3.51609 0.728077 3.55176C0.646025 3.58742 0.5718 3.63889 0.509641 3.70324C0.447482 3.76759 0.398606 3.84355 0.365803 3.92679C0.333001 4.01002 0.316914 4.09891 0.318461 4.18836C0.320009 4.27781 0.339161 4.36609 0.374823 4.44814C0.410485 4.53019 0.46196 4.60441 0.526308 4.66657L3.08631 7.22657C3.14828 7.28906 3.22202 7.33866 3.30326 7.3725C3.3845 7.40635 3.47163 7.42377 3.55964 7.42377C3.64765 7.42377 3.73479 7.40635 3.81603 7.3725C3.89727 7.33866 3.971 7.28906 4.03297 7.22657L9.47297 1.78657C9.54064 1.72415 9.59465 1.64838 9.63159 1.56404C9.66852 1.47971 9.6876 1.38864 9.6876 1.29657C9.6876 1.20451 9.66852 1.11344 9.63159 1.0291C9.59465 0.94477 9.54064 0.869002 9.47297 0.806574V0.806574Z"></path>
  </symbol>
  <symbol xmlns="http://www.w3.org/2000/svg" viewBox="0 0 12 12" id="list-view">
    <g clip-path="url(#clip0_1904_1757)">
      <path d="M1.875 8.625H0.375C0.275544 8.625 0.180161 8.66451 0.109835 8.73483C0.0395088 8.80516 0 8.90054 0 9L0 10.5C0 10.5995 0.0395088 10.6948 0.109835 10.7652C0.180161 10.8355 0.275544 10.875 0.375 10.875H1.875C1.97446 10.875 2.06984 10.8355 2.14016 10.7652C2.21049 10.6948 2.25 10.5995 2.25 10.5V9C2.25 8.90054 2.21049 8.80516 2.14016 8.73483C2.06984 8.66451 1.97446 8.625 1.875 8.625ZM1.875 1.125H0.375C0.275544 1.125 0.180161 1.16451 0.109835 1.23483C0.0395088 1.30516 0 1.40054 0 1.5L0 3C0 3.09946 0.0395088 3.19484 0.109835 3.26516C0.180161 3.33549 0.275544 3.375 0.375 3.375H1.875C1.97446 3.375 2.06984 3.33549 2.14016 3.26516C2.21049 3.19484 2.25 3.09946 2.25 3V1.5C2.25 1.40054 2.21049 1.30516 2.14016 1.23483C2.06984 1.16451 1.97446 1.125 1.875 1.125ZM1.875 4.875H0.375C0.275544 4.875 0.180161 4.91451 0.109835 4.98484C0.0395088 5.05516 0 5.15054 0 5.25L0 6.75C0 6.84946 0.0395088 6.94484 0.109835 7.01517C0.180161 7.08549 0.275544 7.125 0.375 7.125H1.875C1.97446 7.125 2.06984 7.08549 2.14016 7.01517C2.21049 6.94484 2.25 6.84946 2.25 6.75V5.25C2.25 5.15054 2.21049 5.05516 2.14016 4.98484C2.06984 4.91451 1.97446 4.875 1.875 4.875ZM11.625 9H4.125C4.02554 9 3.93016 9.03951 3.85984 9.10983C3.78951 9.18016 3.75 9.27554 3.75 9.375V10.125C3.75 10.2245 3.78951 10.3198 3.85984 10.3902C3.93016 10.4605 4.02554 10.5 4.125 10.5H11.625C11.7245 10.5 11.8198 10.4605 11.8902 10.3902C11.9605 10.3198 12 10.2245 12 10.125V9.375C12 9.27554 11.9605 9.18016 11.8902 9.10983C11.8198 9.03951 11.7245 9 11.625 9ZM11.625 1.5H4.125C4.02554 1.5 3.93016 1.53951 3.85984 1.60984C3.78951 1.68016 3.75 1.77554 3.75 1.875V2.625C3.75 2.72446 3.78951 2.81984 3.85984 2.89016C3.93016 2.96049 4.02554 3 4.125 3H11.625C11.7245 3 11.8198 2.96049 11.8902 2.89016C11.9605 2.81984 12 2.72446 12 2.625V1.875C12 1.77554 11.9605 1.68016 11.8902 1.60984C11.8198 1.53951 11.7245 1.5 11.625 1.5ZM11.625 5.25H4.125C4.02554 5.25 3.93016 5.28951 3.85984 5.35984C3.78951 5.43016 3.75 5.52554 3.75 5.625V6.375C3.75 6.47446 3.78951 6.56984 3.85984 6.64017C3.93016 6.71049 4.02554 6.75 4.125 6.75H11.625C11.7245 6.75 11.8198 6.71049 11.8902 6.64017C11.9605 6.56984 12 6.47446 12 6.375V5.625C12 5.52554 11.9605 5.43016 11.8902 5.35984C11.8198 5.28951 11.7245 5.25 11.625 5.25Z"></path>
    </g>
    <defs>
      <clipPath id="clip0_1904_1757">
        <rect width="12" height="12" fill="white"></rect>
      </clipPath>
    </defs>
  </symbol>
  <symbol xmlns="http://www.w3.org/2000/svg" viewBox="0 0 12 12" id="grid-view">
    <path d="M4.66683 1.33325H2.00016C1.63197 1.33325 1.3335 1.63173 1.3335 1.99992V4.66659C1.3335 5.03478 1.63197 5.33325 2.00016 5.33325H4.66683C5.03502 5.33325 5.3335 5.03478 5.3335 4.66659V1.99992C5.3335 1.63173 5.03502 1.33325 4.66683 1.33325Z"></path>
    <path d="M9.99984 1.33325H7.33317C6.96498 1.33325 6.6665 1.63173 6.6665 1.99992V4.66659C6.6665 5.03478 6.96498 5.33325 7.33317 5.33325H9.99984C10.368 5.33325 10.6665 5.03478 10.6665 4.66659V1.99992C10.6665 1.63173 10.368 1.33325 9.99984 1.33325Z"></path>
    <path d="M4.66683 6.66675H2.00016C1.63197 6.66675 1.3335 6.96522 1.3335 7.33341V10.0001C1.3335 10.3683 1.63197 10.6667 2.00016 10.6667H4.66683C5.03502 10.6667 5.3335 10.3683 5.3335 10.0001V7.33341C5.3335 6.96522 5.03502 6.66675 4.66683 6.66675Z"></path>
    <path d="M9.99984 6.66675H7.33317C6.96498 6.66675 6.6665 6.96522 6.6665 7.33341V10.0001C6.6665 10.3683 6.96498 10.6667 7.33317 10.6667H9.99984C10.368 10.6667 10.6665 10.3683 10.6665 10.0001V7.33341C10.6665 6.96522 10.368 6.66675 9.99984 6.66675Z"></path>
  </symbol>
</svg>